# xmcd
#
# Track frame offsets: 
#        150
#        22032
#        36602
#        51776
#        75114
#        88793
#        104401
#        122313
#        144758
#        158809
#        174467
#        187425
#        203247
#        217327
#
# Disc length: 3056 seconds
#
# Revision: 0
# Processed by: cddbd v1.5.2PL0 Copyright (c) Steve Scherf et al.
# Submitted via: ExactAudioCopyFreeDBPlugin 1.0
#
DISCID=c40bee0e
DTITLE=Freddie and The Screamers - I Ain't Crazy
DYEAR=2010
DGENRE=Blues
TTITLE0=Why Baby
TTITLE1=I Ain't Crazy
TTITLE2=A Pretty Short Ride
TTITLE3=Her Love Is Killing Me
TTITLE4=Rock My World
TTITLE5=Don't Mess With Me Baby
TTITLE6=I'm Looking For A Woman
TTITLE7=Get That Feeling
TTITLE8=Instant Love
TTITLE9=It's A Jungle Out There
TTITLE10=Pissin' Up A Rope
TTITLE11=Your Butt's Too Big
TTITLE12=Stone Blues
TTITLE13=Wrong Five O'Clock
EXTD=
EXTT0=
EXTT1=
EXTT2=
EXTT3=
EXTT4=
EXTT5=
EXTT6=
EXTT7=
EXTT8=
EXTT9=
EXTT10=
EXTT11=
EXTT12=
EXTT13=
PLAYORDER=
